<svg width="4400" height="2475" xmlns="http://www.w3.org/2000/svg" xmlns:xlink="http://www.w3.org/1999/xlink" xml:space="preserve" overflow="hidden"><g><path d="M1451 2173 1451 2010 1481 2010 1481 2173 1451 2173Z" fill="#19935C" fill-rule="evenodd"/><path d="M1579.03 2179C1551.11 2179 1511.52 2171.44 1509 2124.67L1539.21 2124.67C1540.58 2150.8 1564.38 2153.78 1576.51 2153.78 1584.06 2153.78 1616.56 2152.87 1616.56 2129.94 1616.56 2118.02 1609.47 2113.66 1594.59 2110.23L1555.23 2101.51C1534.17 2096.93 1511.52 2085.01 1511.52 2053.83 1511.52 2018.76 1545.16 2005 1577.2 2005 1590.7 2005 1611.3 2007.52 1626.4 2021.05 1635.78 2029.53 1639.45 2037.32 1642.42 2056.35L1612.21 2056.35C1611.07 2031.82 1584.98 2030.45 1576.74 2030.45 1571.48 2030.45 1541.04 2030.91 1541.04 2052.23 1541.04 2061.62 1546.53 2068.96 1563.92 2072.86L1606.26 2082.26C1618.85 2085.01 1647 2094.64 1647 2126.5 1647.23 2156.3 1622.28 2179 1579.03 2179Z" fill="#19935C" fill-rule="evenodd"/><path d="M1739.84 2179C1696.07 2179 1672 2153.48 1672 2109.1L1672 2010 1702.25 2010 1702.25 2112.78C1702.25 2141.06 1718.07 2151.87 1739.16 2151.87 1763.68 2151.87 1776.75 2138.3 1776.75 2112.78L1776.75 2010 1807 2010 1807 2109.1C1806.77 2160.84 1775.14 2179 1739.84 2179Z" fill="#19935C" fill-rule="evenodd"/><path d="M1912.22 2179C1857.93 2179 1834 2138.42 1834 2093.49 1834 2050.39 1856.32 2005 1914.52 2005 1961.22 2005 1981.47 2035.95 1984 2061.85L1952.02 2061.85C1945.81 2031.59 1919.81 2031.59 1915.21 2031.59 1889.67 2031.59 1865.98 2052.23 1865.98 2093.03 1865.98 2131.32 1886.68 2152.41 1911.76 2152.41 1922.57 2152.41 1933.39 2148.28 1941.67 2140.26 1949.03 2133.15 1950.64 2127.42 1952.02 2118.25L1984 2118.25C1981.24 2145.76 1960.3 2179 1912.22 2179Z" fill="#19935C" fill-rule="evenodd"/><path d="M2118.52 2173 2118.52 2098.83 2044.03 2098.83 2044.03 2173 2014 2173 2014 2010 2044.25 2010 2044.25 2073.41 2118.75 2073.41 2118.75 2010 2149 2010 2149 2173 2118.52 2173Z" fill="#19935C" fill-rule="evenodd"/><path d="M2257.39 2179C2209.15 2179 2176 2144.57 2176 2092 2176 2039.2 2209.38 2005 2257.39 2005 2305.39 2005 2339 2039.2 2339 2092 2339 2144.57 2305.62 2179 2257.39 2179ZM2257.39 2032.09C2229.5 2032.09 2207.78 2053.21 2207.78 2091.77 2207.78 2130.34 2229.5 2151.68 2257.39 2151.68 2286.88 2151.68 2307.22 2128.96 2307.22 2091.77 2307.22 2054.58 2286.65 2032.09 2257.39 2032.09Z" fill="#19935C" fill-rule="evenodd"/><path d="M2365 2173 2365 2010 2395.06 2010 2395.06 2147.59 2485 2147.59 2485 2173 2365 2173Z" fill="#19935C" fill-rule="evenodd"/><path d="M2631.83 2173 2619.7 2137.97 2551.3 2137.97 2539.17 2173 2506 2173 2568.46 2010 2602.54 2010 2665 2173 2631.83 2173ZM2589.27 2050.06 2585.61 2035.87 2581.73 2050.06 2559.99 2112.79 2610.78 2112.79 2589.27 2050.06Z" fill="#19935C" fill-rule="evenodd"/><path d="M2784.77 2173C2781.32 2169.79 2779.48 2167.51 2779.48 2155.6L2779.48 2135.91C2779.48 2124.24 2775.79 2109.13 2758.3 2109.13L2716.39 2109.13 2716.39 2173 2686 2173 2686 2010 2763.13 2010C2793.75 2010 2813.55 2028.77 2813.55 2054.18 2813.55 2064.94 2809.87 2074.79 2803.42 2082.11 2797.21 2089.21 2791.68 2092.19 2777.87 2095.39 2793.75 2097.68 2809.41 2102.26 2809.41 2132.94L2809.41 2149.42C2809.41 2165.67 2815.4 2170.02 2820 2173L2784.77 2173ZM2759.22 2035.64 2716.39 2035.64 2716.39 2083.95 2754.38 2083.95C2771.19 2083.95 2781.55 2075.25 2781.55 2058.53 2781.55 2043.65 2772.8 2035.64 2759.22 2035.64Z" fill="#19935C" fill-rule="evenodd"/><path d="M1953.28 1824.47 1942 1908 2030.65 1891.25C2065.42 1884.59 2097.88 1849.48 2102.72 1812.53L2114 1729 2025.35 1745.75C1990.35 1752.41 1958.12 1787.52 1953.28 1824.47Z" fill="#19935C" fill-rule="evenodd"/><path d="M1867.11 1701.31C1832.54 1694.42 1789.51 1715.33 1771.43 1747.72L1730 1821.23 1817.89 1838.69C1852.46 1845.58 1895.49 1824.67 1913.57 1792.28L1955 1718.77 1867.11 1701.31Z" fill="#19935C" fill-rule="evenodd"/><path d="M1747.42 1698.8 1800 1632.9 1743.06 1612C1698.98 1620.04 1655.59 1627.16 1613.12 1632.9L1561 1698.57 1645.49 1729.57C1678.55 1741.74 1724.24 1727.96 1747.42 1698.8Z" fill="#19935C" fill-rule="evenodd"/><path d="M1422.62 1421.94C1427.01 1422.63 1431.39 1423.31 1436 1424 1433.23 1382.32 1430.23 1337.66 1427.47 1293 1420.78 1293.92 1414.32 1295.29 1408.1 1297.81L1329 1327.58 1385.96 1397.2C1394.95 1408.2 1408.1 1416.67 1422.62 1421.94Z" fill="#19935C" fill-rule="evenodd"/><path d="M1355.54 1109.09 1315.7 1118.3C1305.63 1129.58 1296.24 1140.85 1288 1151.9L1320.05 1205.07C1338.37 1235.45 1382.56 1253.4 1418.73 1244.88L1424 1243.73C1421.25 1199.31 1418.28 1156.04 1415.99 1116.46 1396.98 1107.71 1375 1104.49 1355.54 1109.09Z" fill="#19935C" fill-rule="evenodd"/><path d="M1307 906.906 1276 904 1280.53 923C1289.12 917.635 1297.95 912.271 1307 906.906Z" fill="#19935C" fill-rule="evenodd"/><path d="M1410.92 1030C1398.66 1039.92 1386.87 1049.62 1376 1059.54 1376.69 1059.54 1377.39 1059.77 1378.08 1059.77L1413 1063C1412.31 1051.46 1411.61 1040.38 1410.92 1030Z" fill="#19935C" fill-rule="evenodd"/><path d="M1380.54 863.001C1394.1 855.448 1407.66 847.668 1421.68 840.116 1410.88 829.817 1407.89 818.833 1407.89 809.679 1407.89 794.117 1416.63 773.063 1458 759.103 1445.36 740.795 1426.28 726.149 1405.37 720.427L1324 698 1328.37 787.48C1329.98 817.46 1352.04 848.354 1380.54 863.001Z" fill="#19935C" fill-rule="evenodd"/><path d="M1457.87 691.965 1519.84 740 1526.02 738.17 1553.92 658.798C1565.58 625.631 1551.4 580.111 1522.13 557.466L1455.81 506 1426.08 590.405C1414.42 623.801 1428.6 669.32 1457.87 691.965Z" fill="#19935C" fill-rule="evenodd"/><path d="M1632.11 607 1677.49 529.411C1695.37 498.88 1689.87 451.363 1665.34 423.357L1609.89 360 1564.51 437.589C1546.63 468.12 1552.13 515.638 1576.66 543.643L1632.11 607Z" fill="#19935C" fill-rule="evenodd"/><path d="M1769.23 499 1827.66 430.593C1850.58 403.735 1853.55 355.988 1834.31 324.08L1790.77 252 1732.34 320.407C1709.42 347.265 1706.45 395.012 1725.69 426.92L1769.23 499Z" fill="#19935C" fill-rule="evenodd"/><path d="M2294.64 1747.6 2212 1733 2224.82 1821.54C2229.86 1856.46 2263.73 1889.78 2300.36 1896.39L2383 1911 2370.18 1822.46C2364.92 1787.77 2331.04 1754.22 2294.64 1747.6Z" fill="#19935C" fill-rule="evenodd"/><path d="M2453.45 1704.69 2371 1721.91 2416.25 1799.75C2433.93 1830.29 2478.03 1848.89 2514.55 1841.31L2597 1824.09 2551.75 1746.25C2534.07 1715.71 2489.97 1697.11 2453.45 1704.69Z" fill="#19935C" fill-rule="evenodd"/><path d="M2605.75 1605.53 2527 1635.28 2583.71 1704.84C2605.98 1732.3 2652.35 1743.74 2687.25 1730.47L2766 1700.72 2709.29 1631.16C2687.02 1603.7 2640.65 1592.26 2605.75 1605.53Z" fill="#19935C" fill-rule="evenodd"/><path d="M2722.47 1476.63 2655 1526.95 2728.41 1578.64C2757.23 1599.09 2804.8 1597.48 2834.53 1575.2L2902 1524.88 2828.59 1473.19C2799.77 1452.97 2752.2 1454.58 2722.47 1476.63Z" fill="#19935C" fill-rule="evenodd"/><path d="M2812.35 1328.06 2760 1393.71 2844.49 1424.59C2877.78 1436.71 2923.47 1422.99 2946.65 1393.94L2999 1328.29 2914.51 1297.41C2881.22 1285.29 2835.53 1299.01 2812.35 1328.06Z" fill="#19935C" fill-rule="evenodd"/><path d="M3012.58 1152.71C2963.96 1180.29 2913.51 1207.42 2861 1233.86L2915.58 1245.49C2950.2 1252.78 2993.54 1232.95 3012.35 1201.26L3055 1129.23 3053.62 1129C3040.32 1136.75 3026.57 1144.73 3012.58 1152.71Z" fill="#19935C" fill-rule="evenodd"/><path d="M2884.61 984.86 2883 992C2920.88 964.59 2954.85 936.949 2984 910L2962.88 912.073C2927.76 915.989 2892.64 948.466 2884.61 984.86Z" fill="#19935C" fill-rule="evenodd"/><path d="M3004 698 2917.45 722.936C2902.48 727.283 2888.44 737.12 2877.16 749.932L2905.25 758.625C2950.36 772.58 2959.8 794.543 2959.8 810.557 2959.8 826.571 2950.36 848.533 2905.25 862.488L2850.46 879.417 2850 892 2936.55 867.064C2970.62 857.227 2999.4 819.25 3000.78 781.96L3004 698Z" fill="#19935C" fill-rule="evenodd"/><path d="M2890.93 555.27C2866.92 552.52 2841.32 550.687 2814.11 550L2801.99 559.623C2774.32 581.618 2762.43 627.67 2775.01 662.724L2797.64 724.814 2817.54 731 2874.01 686.094C2901.68 664.099 2913.57 618.047 2900.99 582.992L2890.93 555.27Z" fill="#19935C" fill-rule="evenodd"/><path d="M2666 555.576 2695.67 605 2742 551C2717.58 551.687 2692.25 553.288 2666 555.576Z" fill="#19935C" fill-rule="evenodd"/><path d="M2717.56 358 2679 403C2699.08 399.574 2719.15 396.376 2739 393.406L2717.56 358Z" fill="#19935C" fill-rule="evenodd"/><path d="M2505.6 437C2538.57 429.694 2571.08 422.844 2603.36 416.679 2620.07 386.312 2614.58 340.418 2590.54 313.018L2535.14 250 2489.58 327.175C2471.72 357.542 2476.99 404.806 2501.48 432.662L2505.6 437Z" fill="#19935C" fill-rule="evenodd"/><path d="M2098.55 1055.93 1627 910 1627 1262.67 1627 1262.67C1740.93 1319.57 1861.06 1358.35 1983.7 1379 2119.18 1348.02 2263.15 1303.74 2406.65 1247.29 2538.93 1194.98 2657.9 1137.39 2759 1078.19L2759 910 2287.45 1055.93C2261.08 1064.19 2226.93 1068.32 2193 1068.32 2159.07 1068.09 2125.14 1063.96 2098.55 1055.93Z" fill="#0070C0" fill-rule="evenodd"/><path d="M1452.59 1536.61C1452.13 1528.81 1451.44 1520.55 1450.98 1512.07 1450.98 1511.15 1450.75 1510.23 1450.75 1509.08 1289.7 1507.25 1168.98 1476.05 1113.54 1412.5 1029.46 1316.14 1114.45 1167.25 1315.59 1013.54 1346.06 990.137 1379.28 966.737 1415.02 943.336 1415.02 940.812 1414.79 938.977 1414.79 938.059 1414.79 935.077 1415.02 931.865 1415.24 928.883 1415.47 926.588 1415.7 924.294 1415.93 922 1414.1 923.147 1412.04 924.294 1410.2 925.441 1373.55 948.154 1338.96 970.866 1306.43 993.349 1044.58 1176.65 926.142 1359.27 1026.48 1473.98 1094.29 1551.53 1251.22 1585.48 1459 1579.28 1456.25 1572.86 1454.65 1565.75 1454.19 1558.41 1453.5 1551.75 1453.04 1544.41 1452.59 1536.61Z" fill="#0070C0" fill-rule="evenodd"/><path d="M3373.61 547.94C3289.27 451.434 3066.52 422.55 2779.59 454.414 2737.43 458.998 2693.88 465.187 2649.2 472.294 2623.76 476.42 2598.09 481.004 2572.19 485.818 2568.07 486.506 2563.94 487.423 2559.82 488.111 2465.63 506.449 2367.54 530.06 2267.16 558.943 2274.27 560.548 2281.14 562.152 2287.33 564.215L2291.91 565.591C2416.81 531.665 2537.59 506.908 2648.97 491.32 2695.26 484.901 2739.72 480.088 2782.57 476.878 3008.77 460.144 3181.56 489.257 3251.23 568.8 3335.8 665.536 3249.4 815.224 3046.58 969.268 3005.56 1000.44 2959.5 1031.85 2909.31 1063.02 2862.78 1091.91 2812.37 1120.79 2758.74 1148.99 2664.09 1198.73 2559.13 1246.87 2445.69 1291.57 2344.85 1331.45 2243.79 1365.84 2145.02 1394.95 1967.41 1447.22 1796.44 1482.06 1645.42 1498.1 1626.63 1500.17 1608.06 1501.77 1589.73 1503.38 1588.35 1525.15 1586.98 1543.72 1586.06 1558.39 1585.83 1562.75 1585.15 1567.1 1584 1571 1597.06 1569.85 1610.13 1568.48 1623.19 1566.87 1848.92 1541.43 2114.08 1478.62 2382.67 1381.43 2418.19 1368.59 2453.48 1355.29 2489 1341.31 2584.57 1303.49 2674.86 1263.6 2758.51 1222.57 2798.39 1202.85 2836.89 1182.91 2873.78 1162.97 2907.01 1144.86 2938.64 1126.52 2969.35 1108.18 3316.09 900.04 3488.43 679.29 3373.61 547.94Z" fill="#0070C0" fill-rule="evenodd"/><path d="M1572.16 1082.58C1574 1048.46 1575.39 1018.01 1576.08 993.736 1576.31 988.928 1576.31 984.12 1576.54 979.769 1576.77 968.779 1577 959.62 1577 952.064 1577 950.461 1577 949.088 1577 947.714 1577 947.256 1577 946.798 1577 946.34 1577 945.424 1577 944.508 1576.77 943.363 1576.77 942.905 1576.77 942.219 1576.54 941.761 1576.54 940.845 1576.31 940.158 1576.31 939.242 1576.31 938.784 1576.08 938.097 1576.08 937.639 1576.08 936.952 1575.85 936.036 1575.85 935.349 1575.85 934.892 1575.62 934.205 1575.62 933.747 1575.39 933.06 1575.39 932.373 1575.16 931.686 1574.92 931.228 1574.92 930.541 1574.69 930.083 1574.46 929.396 1574.46 928.709 1574.23 928.023 1574 927.565 1574 926.878 1573.77 926.42 1573.54 925.733 1573.31 925.046 1573.31 924.588 1573.31 924.359 1573.08 924.13 1573.08 923.901 1573.08 923.901 1573.08 923.901 1573.08 923.901 1573.08 923.672 1572.85 923.443 1572.85 923.214 1572.62 922.527 1572.39 922.069 1572.16 921.382 1571.93 920.925 1571.7 920.467 1571.47 920.009 1571.23 919.322 1571 918.864 1570.77 918.177 1570.54 917.719 1570.31 917.261 1570.08 916.803 1569.85 916.345 1569.62 915.658 1569.39 915.2 1569.16 914.742 1568.93 914.284 1568.7 913.827 1568.47 913.369 1568.24 912.682 1567.78 912.224 1567.55 911.766 1567.31 911.308 1567.08 910.85 1566.85 910.392 1566.39 909.934 1566.16 909.247 1565.93 908.789 1565.7 908.331 1565.47 908.102 1565.24 907.644 1564.78 907.186 1564.55 906.729 1564.32 906.271 1564.09 906.042 1563.62 905.584 1563.39 905.126 1562.93 904.668 1562.7 904.21 1562.47 903.752 1562.01 903.523 1561.78 903.065 1561.32 902.607 1561.09 902.149 1560.63 901.691 1560.4 901.233 1559.93 901.004 1559.7 900.546 1559.24 900.089 1559.01 899.631 1558.55 899.402 1558.32 899.173 1557.86 898.715 1557.63 898.486 1557.17 898.028 1556.94 897.799 1556.48 897.341 1556.24 897.112 1555.78 896.654 1555.55 896.425 1555.09 895.967 1554.86 895.738 1554.4 895.28 1553.94 895.051 1553.71 894.822 1553.25 894.364 1552.79 894.135 1552.32 893.677 1552.09 893.448 1551.63 893.219 1551.4 892.99 1550.94 892.762 1550.48 892.533 1550.02 892.075 1549.56 891.846 1549.1 891.617 1548.86 891.388 1548.4 891.159 1547.94 890.93 1547.48 890.701 1547.02 890.243 1546.56 890.014 1546.33 889.785 1545.87 889.556 1545.41 889.327 1544.94 889.098 1544.48 888.869 1544.02 888.64 1543.56 888.411 1543.33 888.182 1542.87 887.953 1542.41 887.724 1541.95 887.495 1541.48 887.266 1541.02 887.037 1540.79 887.037 1540.33 886.808 1539.87 886.579 1539.41 886.35 1538.95 886.121 1538.49 886.121 1538.03 885.893 1537.56 885.664 1537.1 885.435 1536.64 885.435 1536.18 885.206 1535.72 885.206 1535.26 884.977 1534.8 884.748 1534.34 884.748 1533.87 884.519 1533.41 884.29 1532.95 884.29 1532.49 884.061 1532.03 883.832 1531.57 883.832 1531.11 883.603 1530.65 883.603 1530.18 883.374 1529.72 883.374 1529.26 883.374 1528.8 883.145 1528.34 883.145 1527.88 883.145 1527.42 882.916 1526.96 882.916 1526.49 882.916 1526.03 882.687 1525.57 882.687 1525.11 882.687 1524.65 882.458 1524.19 882.458 1523.73 882.458 1523.27 882.229 1522.8 882.229 1522.34 882.229 1521.88 882.229 1521.42 882 1520.96 882 1520.5 882 1520.04 882 1519.58 882 1519.11 882 1518.65 882 1518.19 882 1517.73 882 1517.27 882 1517.04 882 1516.81 882 1516.58 882 1516.58 882 1516.58 882 1516.58 882 1516.58 882 1516.58 882 1516.35 882 1516.12 882 1515.89 882 1515.66 882 1515.19 882 1514.73 882 1514.27 882 1513.81 882 1513.35 882 1512.89 882 1512.43 882 1511.97 882 1511.5 882 1511.04 882 1510.58 882 1510.12 882.229 1509.66 882.229 1509.2 882.229 1508.74 882.458 1508.28 882.458 1507.81 882.687 1507.35 882.687 1506.89 882.687 1506.43 882.916 1505.97 882.916 1505.51 882.916 1505.05 883.145 1504.59 883.145 1504.12 883.145 1503.66 883.374 1503.2 883.374 1502.74 883.374 1502.28 883.603 1501.82 883.603 1501.36 883.603 1500.9 883.832 1500.43 883.832 1499.97 884.061 1499.51 884.061 1499.05 884.29 1498.59 884.519 1498.13 884.519 1497.9 884.748 1497.44 884.977 1496.97 884.977 1496.51 885.206 1496.05 885.435 1495.59 885.435 1495.36 885.664 1494.9 885.893 1494.44 885.893 1493.98 886.121 1493.52 886.35 1493.05 886.35 1492.82 886.579 1492.36 886.808 1491.9 887.037 1491.44 887.037 1490.98 887.266 1490.75 887.495 1490.29 887.495 1489.83 887.724 1489.36 887.953 1488.9 888.182 1488.44 888.411 1488.21 888.64 1487.75 888.869 1487.52 889.098 1487.29 889.098 1486.83 889.327 1486.6 889.327 1486.6 889.556 1486.37 889.556 1485.91 889.785 1485.67 890.014 1485.21 890.243 1484.75 890.472 1484.29 890.701 1484.06 890.93 1483.6 891.159 1483.37 891.388 1482.91 891.617 1482.91 891.617 1482.68 891.617 1482.68 891.617 1482.22 891.846 1481.98 892.075 1481.52 892.304 1481.06 892.533 1480.83 892.762 1480.37 892.99 1479.91 893.219 1479.68 893.677 1479.22 893.906 1478.99 894.135 1478.53 894.364 1478.29 894.593 1477.83 894.822 1477.6 895.28 1477.14 895.509 1476.91 895.738 1476.45 895.967 1476.22 896.425 1475.76 896.654 1475.53 897.112 1475.07 897.341 1474.84 897.57 1474.37 897.799 1474.14 898.257 1473.68 898.715 1473.45 898.944 1472.99 899.402 1472.76 899.631 1472.3 900.089 1472.07 900.317 1471.84 900.775 1471.38 901.004 1471.15 901.462 1470.91 901.691 1470.68 902.149 1470.22 902.378 1469.99 902.836 1469.53 903.065 1469.3 903.523 1469.07 903.752 1468.84 904.21 1468.61 904.439 1468.38 904.897 1467.92 905.355 1467.69 905.584 1467.46 906.042 1467.22 906.271 1466.99 906.729 1466.76 907.186 1466.53 907.644 1466.07 908.102 1465.84 908.56 1465.61 908.789 1465.38 909.247 1465.15 909.705 1464.92 910.163 1464.69 910.621 1464.46 911.079 1464.23 911.308 1464 911.766 1463.77 912.224 1463.53 912.682 1463.3 913.14 1463.3 913.14 1463.3 913.14 1463.3 913.14 1463.3 913.14 1463.3 913.14 1463.3 913.14 1463.07 913.598 1462.84 913.827 1462.84 914.284 1462.61 914.742 1462.38 915.2 1462.15 915.887 1461.92 916.345 1461.92 916.574 1461.69 917.032 1461.46 917.49 1461.23 918.177 1461.23 918.635 1461 919.093 1461 919.551 1460.77 919.78 1460.54 920.238 1460.54 920.925 1460.31 921.382 1460.08 921.84 1460.08 922.298 1459.84 922.527 1459.61 922.985 1459.61 923.672 1459.38 924.359 1459.38 924.817 1459.15 925.275 1459.15 925.733 1458.92 926.42 1458.92 926.878 1458.92 927.565 1458.92 928.023 1458.69 928.48 1458.69 928.938 1458.69 929.625 1458.46 930.312 1458.46 930.999 1458.46 931.457 1458.46 931.686 1458.23 932.144 1458.23 932.831 1458 933.747 1458 934.434 1458 934.663 1458 935.12 1458 935.349 1458 936.494 1458 937.639 1458 938.784 1458 943.363 1459.15 965.115 1461.23 997.858 1461.23 997.858 1461.23 997.858 1461.23 997.858 1461.92 1009.31 1462.61 1022.13 1463.53 1036.1 1463.53 1037.7 1463.77 1039.53 1463.77 1041.13 1464 1043.88 1464 1046.63 1464.23 1049.38 1464.46 1052.81 1464.69 1056.24 1464.92 1059.68 1465.15 1061.97 1465.15 1064.03 1465.38 1066.32 1465.61 1071.13 1466.07 1076.16 1466.3 1081.2 1466.53 1083.03 1466.53 1084.87 1466.76 1086.7 1466.99 1090.36 1467.22 1094.25 1467.46 1097.92 1468.38 1111.2 1469.3 1125.16 1469.99 1139.36 1470.22 1143.48 1470.45 1147.6 1470.68 1151.72 1470.91 1153.78 1470.91 1155.85 1471.15 1157.91 1471.15 1159.28 1471.38 1160.88 1471.38 1162.26 1471.61 1167.06 1472.07 1171.87 1472.3 1176.68 1472.76 1183.09 1473.22 1189.27 1473.45 1195.69 1473.68 1197.75 1473.68 1200.04 1473.91 1202.1 1474.37 1210.57 1475.07 1219.27 1475.53 1227.97 1475.53 1229.57 1475.76 1231.4 1475.76 1233.01 1475.76 1233.47 1475.76 1233.92 1475.76 1234.38 1476.22 1243.08 1476.91 1251.78 1477.37 1260.48 1478.06 1271.24 1478.76 1282.24 1479.45 1293 1479.45 1294.14 1479.68 1295.06 1479.68 1296.2 1479.91 1299.41 1480.14 1302.61 1480.37 1305.82 1480.6 1307.88 1480.6 1310.17 1480.83 1312.23 1481.29 1318.64 1481.75 1325.05 1481.98 1331.46 1482.22 1333.75 1482.22 1336.04 1482.45 1338.1 1482.68 1342.22 1482.91 1346.35 1483.14 1350.24 1483.37 1352.53 1483.37 1354.59 1483.6 1356.88 1484.06 1362.83 1484.29 1368.78 1484.75 1374.51 1484.75 1374.74 1484.75 1374.97 1484.75 1375.2 1484.98 1379.09 1485.21 1382.98 1485.44 1386.87 1485.67 1390.77 1485.91 1394.89 1486.14 1398.78 1486.37 1402.67 1486.6 1406.56 1486.83 1410.46 1487.06 1415.27 1487.52 1419.84 1487.75 1424.42 1487.75 1425.34 1487.98 1426.48 1487.98 1427.4 1487.98 1427.4 1487.98 1427.63 1487.98 1427.63 1488.44 1433.12 1488.67 1438.62 1489.13 1443.89 1489.36 1447.55 1489.59 1450.98 1489.83 1454.42 1490.06 1457.85 1490.29 1461.29 1490.52 1464.72 1490.52 1466.32 1490.75 1468.16 1490.75 1469.76 1490.98 1473.19 1491.21 1476.4 1491.44 1479.61 1491.44 1480.06 1491.44 1480.29 1491.44 1480.75 1491.67 1485.1 1491.9 1489.45 1492.36 1493.57 1492.59 1496.55 1492.82 1499.53 1493.05 1502.5 1493.05 1504.33 1493.28 1505.94 1493.28 1507.54 1493.28 1508.68 1493.52 1509.83 1493.52 1510.97 1493.52 1512.35 1493.75 1513.72 1493.75 1515.1 1493.98 1517.84 1494.21 1520.36 1494.21 1522.88 1495.13 1535.47 1495.82 1546.23 1496.28 1554.71 1496.28 1556.31 1496.51 1557.68 1496.97 1559.06 1497.44 1560.89 1498.13 1562.49 1499.05 1564.09 1499.97 1565.7 1500.9 1567.07 1502.05 1568.44 1504.35 1570.96 1507.35 1573.02 1510.58 1574.4 1511.97 1574.86 1513.35 1575.31 1514.73 1575.54 1514.96 1575.54 1515.42 1575.54 1515.66 1575.77 1516.81 1576 1517.96 1576 1519.11 1576 1520.73 1576 1522.11 1575.77 1523.5 1575.54 1524.19 1575.31 1524.88 1575.31 1525.57 1575.08 1529.03 1574.17 1532.26 1572.34 1534.8 1569.82 1538.95 1565.93 1541.72 1560.66 1541.95 1554.71 1542.87 1542.57 1543.79 1525.86 1545.17 1505.71 1545.17 1505.71 1545.17 1505.71 1545.17 1505.71 1546.1 1491.05 1547.25 1474.8 1548.4 1456.94 1548.86 1448.47 1549.56 1439.76 1550.02 1430.84L1550.02 1430.84C1550.25 1427.63 1550.48 1424.65 1550.71 1421.45 1550.94 1418.24 1551.17 1415.04 1551.4 1411.83 1551.63 1408.17 1551.86 1404.5 1552.09 1400.84 1552.32 1397.63 1552.55 1394.2 1552.79 1390.77 1553.02 1386.87 1553.25 1383.21 1553.48 1379.32 1553.71 1374.51 1554.17 1369.47 1554.4 1364.66 1554.86 1358.48 1555.09 1352.07 1555.55 1345.66 1556.71 1326.65 1558.09 1306.96 1559.24 1287.27 1560.86 1259.57 1562.7 1231.86 1564.32 1204.39 1564.55 1200.49 1564.78 1196.6 1565.01 1192.71 1565.47 1184.92 1565.93 1177.14 1566.39 1169.58 1566.62 1165.69 1566.85 1162.03 1567.08 1158.13 1567.55 1150.58 1568.01 1143.02 1568.24 1135.7 1568.93 1124.48 1569.39 1113.72 1570.08 1102.95 1571.47 1096.31 1571.7 1089.44 1572.16 1082.58Z" fill="#19935C" fill-rule="evenodd"/><path d="M1486.81 809.187C1485.44 809.645 1484.06 810.103 1482.92 810.562 1482.69 810.562 1482.23 810.791 1482 810.791 1482.23 810.791 1482.69 811.02 1482.92 811.02 1483.6 811.249 1484.52 811.478 1485.21 811.708 1485.67 811.937 1486.13 811.937 1486.81 812.166L1567.28 837.144 1586.08 842.873 1626.88 855.476 1668.38 868.309 2114.03 1006.03C2156.67 1019.32 2229.11 1019.32 2271.75 1006.03L2758.89 855.476 2862.28 823.624 2899.19 812.166C2901.02 811.708 2902.62 811.02 2904 810.562 2902.62 810.103 2901.02 809.416 2899.19 808.958L2863.88 797.958 2298.11 623.112 2271.75 614.862C2239.65 605.009 2190.59 602.488 2150.25 607.529 2136.95 609.133 2124.57 611.654 2114.03 614.862L1945.07 667.11 1495.53 805.979 1486.81 809.187ZM2112.19 735.399C2135.12 722.795 2166.06 715.004 2200.22 715.004 2238.73 715.004 2273.35 724.857 2296.73 740.44 2315.99 753.273 2327.68 770.001 2327.68 788.334 2327.68 828.894 2270.6 861.664 2200.22 861.664 2129.84 861.664 2072.76 828.894 2072.76 788.334 2072.99 767.48 2088.12 748.69 2112.19 735.399Z" fill="#FF0000" fill-rule="evenodd"/></g></svg>